<svg id="Layer_1" data-name="Layer 1" xmlns="http://www.w3.org/2000/svg" viewBox="0 0 184.13 17.28"><defs><style>.cls-1{fill:#ff2424;}</style></defs><title>logo</title><path class="cls-1" d="M2.94,17.28H.36c-.32,0-.43-.19-.32-.56L4.29.56A.76.76,0,0,1,5.09,0H8.67a.72.72,0,0,1,.8.56l4.25,16.16c.11.37,0,.56-.32.56H10.82a.56.56,0,0,1-.41-.12,1,1,0,0,1-.16-.44l-.75-3H4.26l-.75,3a.87.87,0,0,1-.18.44A.54.54,0,0,1,2.94,17.28Zm3.9-14L4.9,11h4L7,3.25Z"/><path class="cls-1" d="M30.23,0h2.26c.39,0,.59.18.59.54V12.9a4.32,4.32,0,0,1-1.17,3.24,4.48,4.48,0,0,1-3.26,1.14h-3a4.46,4.46,0,0,1-3.28-1.13,4.33,4.33,0,0,1-1.15-3.25V.56A.49.49,0,0,1,21.82,0H24.1a.5.5,0,0,1,.57.56V12.74A1.69,1.69,0,0,0,25,14a1.66,1.66,0,0,0,1.2.37h1.85A1.72,1.72,0,0,0,29.31,14a1.69,1.69,0,0,0,.36-1.22V.56A.5.5,0,0,1,30.23,0Z"/><path class="cls-1" d="M47.55,17.28H45.29c-.39,0-.59-.19-.59-.56V3.25c0-.2-.1-.29-.3-.29H41.34a.5.5,0,0,1-.56-.57V.56A.49.49,0,0,1,41.34,0H51.5a.49.49,0,0,1,.56.56V2.39A.5.5,0,0,1,51.5,3H48.44c-.22,0-.33.09-.33.29V16.72A.49.49,0,0,1,47.55,17.28Z"/><path class="cls-1" d="M67.05,17.28H64a4.48,4.48,0,0,1-3.28-1.13,4.33,4.33,0,0,1-1.15-3.25V4.38a4.34,4.34,0,0,1,1.15-3.25A4.52,4.52,0,0,1,64,0h3a4.5,4.5,0,0,1,3.28,1.13,4.34,4.34,0,0,1,1.16,3.25V12.9a4.33,4.33,0,0,1-1.16,3.25A4.46,4.46,0,0,1,67.05,17.28Zm-2.47-3h1.91A1.69,1.69,0,0,0,67.71,14a1.69,1.69,0,0,0,.36-1.22V4.54a1.69,1.69,0,0,0-.36-1.22A1.69,1.69,0,0,0,66.49,3H64.58a1.65,1.65,0,0,0-1.21.36A1.74,1.74,0,0,0,63,4.54v8.2A1.74,1.74,0,0,0,63.37,14,1.65,1.65,0,0,0,64.58,14.33Z"/><path class="cls-1" d="M90.94,12.87v-.53a.5.5,0,0,1,.57-.57h2.28a.5.5,0,0,1,.57.57v.21a1.89,1.89,0,0,0,.4,1.4,2.2,2.2,0,0,0,1.48.38H97.5A2.1,2.1,0,0,0,99,13.92a2.07,2.07,0,0,0,.41-1.5v-.33a1.34,1.34,0,0,0-.63-1.19,3.35,3.35,0,0,0-1.57-.5,16.77,16.77,0,0,1-2-.31,13.37,13.37,0,0,1-2-.59,3.18,3.18,0,0,1-1.57-1.42,5.3,5.3,0,0,1-.63-2.73V4.41A4.32,4.32,0,0,1,92.1,1.16,4.5,4.5,0,0,1,95.38,0h2.69a4.53,4.53,0,0,1,3.3,1.16,4.32,4.32,0,0,1,1.18,3.25v.51a.49.49,0,0,1-.56.56H99.71a.5.5,0,0,1-.57-.56V4.76a1.94,1.94,0,0,0-.4-1.43A2.2,2.2,0,0,0,97.26,3H96.21a2.07,2.07,0,0,0-1.49.41A2.46,2.46,0,0,0,94.33,5v.51c0,.84.74,1.33,2.21,1.45a13.54,13.54,0,0,1,4,.92,3.42,3.42,0,0,1,1.58,1.43A5,5,0,0,1,102.8,12v.91a4.35,4.35,0,0,1-1.19,3.26,4.47,4.47,0,0,1-3.27,1.15H95.41a4.49,4.49,0,0,1-3.28-1.15A4.35,4.35,0,0,1,90.94,12.87Z"/><path class="cls-1" d="M113.84,17.28h-2.23a.5.5,0,0,1-.57-.56V.56a.5.5,0,0,1,.57-.56h2a.77.77,0,0,1,.76.38l5.42,10.18h.11V.56a.5.5,0,0,1,.57-.56h2.23a.5.5,0,0,1,.56.56V16.72a.5.5,0,0,1-.56.56h-2a.88.88,0,0,1-.85-.54l-5.38-10h-.11v10A.5.5,0,0,1,113.84,17.28Z"/><path class="cls-1" d="M134.13,17.28h-2.58c-.32,0-.43-.19-.32-.56L135.48.56a.76.76,0,0,1,.8-.56h3.58a.72.72,0,0,1,.8.56l4.25,16.16c.11.37,0,.56-.32.56H142a.56.56,0,0,1-.41-.12,1,1,0,0,1-.16-.44l-.75-3h-5.24l-.75,3a.87.87,0,0,1-.18.44A.54.54,0,0,1,134.13,17.28Zm3.9-14L136.09,11h4l-1.93-7.77Z"/><path class="cls-1" d="M155.7,17.28h-2.28a.5.5,0,0,1-.57-.56V.56a.5.5,0,0,1,.57-.56H160a4.44,4.44,0,0,1,3.25,1.14,4.35,4.35,0,0,1,1.15,3.24V7a4.35,4.35,0,0,1-1.15,3.24A4.44,4.44,0,0,1,160,11.34h-3.39c-.22,0-.32.1-.32.3v5.08A.5.5,0,0,1,155.7,17.28Zm.86-8.92h2.85A1.65,1.65,0,0,0,160.62,8,1.72,1.72,0,0,0,161,6.8V4.54a1.74,1.74,0,0,0-.35-1.22A1.65,1.65,0,0,0,159.41,3h-2.85a.25.25,0,0,0-.29.29V8.06A.26.26,0,0,0,156.56,8.36Z"/><path class="cls-1" d="M172.27,12.87v-.53a.5.5,0,0,1,.57-.57h2.28a.5.5,0,0,1,.57.57v.21a1.89,1.89,0,0,0,.4,1.4,2.2,2.2,0,0,0,1.48.38h1.26a2.1,2.1,0,0,0,1.47-.41,2.12,2.12,0,0,0,.41-1.5v-.33a1.34,1.34,0,0,0-.63-1.19,3.35,3.35,0,0,0-1.57-.5,16.77,16.77,0,0,1-2-.31,13.37,13.37,0,0,1-2-.59,3.18,3.18,0,0,1-1.57-1.42,5.3,5.3,0,0,1-.63-2.73V4.41a4.32,4.32,0,0,1,1.18-3.25A4.5,4.5,0,0,1,176.71,0h2.69a4.53,4.53,0,0,1,3.3,1.16,4.33,4.33,0,0,1,1.19,3.25v.51a.5.5,0,0,1-.57.56H181a.5.5,0,0,1-.57-.56V4.76a1.94,1.94,0,0,0-.4-1.43A2.2,2.2,0,0,0,178.59,3h-1.05a2.07,2.07,0,0,0-1.49.41A2.46,2.46,0,0,0,175.66,5v.51c0,.84.73,1.33,2.2,1.45a13.53,13.53,0,0,1,4.06.92,3.42,3.42,0,0,1,1.58,1.43,5,5,0,0,1,.63,2.65v.91a4.35,4.35,0,0,1-1.19,3.26,4.47,4.47,0,0,1-3.27,1.15h-2.93a4.49,4.49,0,0,1-3.28-1.15A4.35,4.35,0,0,1,172.27,12.87Z"/></svg>