<?xml version="1.0" standalone="no"?>
<!DOCTYPE svg PUBLIC "-//W3C//DTD SVG 20010904//EN"
 "http://www.w3.org/TR/2001/REC-SVG-20010904/DTD/svg10.dtd">
<svg version="1.0" xmlns="http://www.w3.org/2000/svg"
 width="700.000000pt" height="700.000000pt" viewBox="0 0 700.000000 700.000000"
 preserveAspectRatio="xMidYMid meet">
<metadata>
Created by potrace 1.11, written by Peter Selinger 2001-2013
</metadata>
<g transform="translate(0.000000,700.000000) scale(0.100000,-0.100000)"
fill="#000000" stroke="none">
<path d="M1321 5679 c-43 -17 -81 -50 -100 -88 -11 -20 -49 -149 -85 -286 -36
-138 -84 -318 -106 -400 -22 -83 -42 -159 -45 -170 -6 -28 -58 -227 -191 -730
-19 -71 -36 -137 -39 -145 -2 -8 -22 -87 -45 -175 -24 -88 -60 -225 -80 -305
-21 -80 -53 -199 -70 -265 -18 -66 -33 -127 -35 -135 -2 -8 -11 -42 -20 -75
-32 -118 -67 -252 -97 -365 -16 -63 -70 -268 -119 -455 -49 -187 -93 -356 -99
-375 -40 -139 -79 -317 -75 -338 2 -15 15 -35 27 -44 21 -17 52 -18 405 -15
l383 2 25 25 c19 20 34 64 70 205 130 508 166 650 170 654 9 8 1316 4 1324 -5
6 -7 133 -493 156 -594 24 -108 58 -229 71 -247 8 -13 26 -28 40 -33 27 -11
734 -14 771 -4 28 8 46 53 40 101 -2 21 -28 126 -57 233 -74 280 -130 492
-135 513 -2 10 -40 154 -84 320 -44 166 -94 356 -111 422 -17 66 -35 134 -40
150 -5 17 -11 41 -14 55 -4 22 -35 140 -82 310 -8 30 -17 62 -19 70 -4 19 -64
247 -116 445 -22 83 -41 157 -44 165 -34 134 -129 497 -140 535 -8 28 -25 93
-39 145 -184 709 -212 810 -233 838 -10 15 -37 36 -59 47 -37 19 -61 20 -559
22 -305 1 -530 -2 -544 -8z m656 -1225 c57 -225 105 -418 107 -429 2 -11 12
-49 21 -85 9 -36 18 -72 20 -80 2 -8 36 -143 75 -300 40 -157 73 -292 75 -300
2 -8 11 -44 20 -80 9 -36 18 -72 20 -80 2 -8 11 -44 20 -80 10 -36 19 -77 22
-92 l4 -28 -233 -1 c-431 -1 -762 2 -767 6 -2 3 1 24 8 47 13 41 18 62 27 108
3 14 9 39 14 55 9 27 194 771 204 820 3 11 39 157 81 325 43 168 78 312 80
320 7 34 57 228 66 258 6 18 16 31 22 29 7 -2 58 -188 114 -413z"/>
<path d="M4720 5669 c-126 -24 -110 -20 -193 -48 -243 -82 -440 -250 -552
-470 -24 -49 -87 -221 -80 -221 2 0 -1 -15 -6 -32 -39 -135 -47 -670 -14 -840
3 -13 9 -48 14 -78 38 -227 188 -477 371 -616 107 -81 404 -179 755 -250 56
-11 74 -14 115 -19 25 -3 52 -8 60 -10 13 -3 48 -8 155 -20 186 -22 233 -29
288 -44 95 -27 214 -91 263 -140 24 -24 56 -69 71 -100 26 -52 28 -66 30 -189
2 -118 -4 -203 -21 -280 -10 -45 -59 -133 -89 -158 -92 -77 -188 -95 -514 -96
-277 0 -328 4 -423 33 -163 52 -214 149 -224 435 -4 107 -22 146 -75 167 -44
18 -680 17 -722 0 -14 -6 -36 -28 -48 -48 -21 -36 -21 -46 -17 -224 5 -212 28
-359 76 -476 126 -313 353 -509 687 -594 134 -34 173 -36 758 -36 559 0 572 1
665 23 236 57 383 134 526 276 159 160 250 366 281 642 9 79 9 478 0 579 -31
355 -206 661 -466 815 -114 68 -507 193 -677 216 -27 3 -52 8 -55 10 -4 2 -24
6 -45 9 -22 3 -50 8 -64 10 -14 3 -52 7 -85 11 -33 3 -71 7 -85 9 -14 3 -61 7
-104 10 -204 15 -384 76 -467 159 -76 76 -84 106 -84 311 0 223 8 276 53 376
25 55 68 94 137 124 47 21 78 29 165 40 48 7 442 6 510 -1 76 -7 157 -31 207
-60 89 -51 131 -159 140 -354 6 -141 18 -175 72 -202 30 -15 73 -17 360 -17
353 0 379 3 415 52 19 26 21 42 21 190 -1 206 -10 285 -51 431 -110 389 -395
625 -849 703 -22 3 -274 8 -560 9 -480 2 -528 1 -625 -17z"/>
</g>
</svg>
